<!-- AI生成：蚊子图标，占位，可后续替换为品牌版PNG -->
<svg xmlns="http://www.w3.org/2000/svg" width="256" height="256" viewBox="0 0 256 256">
  <defs>
    <linearGradient id="bg" x1="0" y1="0" x2="1" y2="1">
      <stop offset="0%" stop-color="#0ea5e9"/>
      <stop offset="100%" stop-color="#3b82f6"/>
    </linearGradient>
  </defs>
  <rect x="0" y="0" width="256" height="256" rx="24" fill="url(#bg)"/>
  <g transform="translate(0,0)" stroke="#ffffff" stroke-width="4" stroke-linecap="round" stroke-linejoin="round" fill="none">
    <!-- 头部与口器 -->
    <circle cx="128" cy="96" r="10" fill="#ffffff"/>
    <path d="M138 96 L160 90"/>
    <!-- 触角 -->
    <path d="M124 88 L114 78"/>
    <path d="M132 88 L142 78"/>
    <!-- 胸部与腹部 -->
    <ellipse cx="128" cy="118" rx="14" ry="12" fill="#ffffff"/>
    <ellipse cx="128" cy="150" rx="10" ry="28" fill="#ffffff" transform="rotate(10 128 150)"/>
    <!-- 翅膀 -->
    <ellipse cx="112" cy="110" rx="42" ry="16" transform="rotate(-25 112 110)" fill="#ffffff" opacity="0.85"/>
    <ellipse cx="144" cy="110" rx="42" ry="16" transform="rotate(25 144 110)" fill="#ffffff" opacity="0.85"/>
    <!-- 前足、中足、后足（左） -->
    <path d="M122 126 L96 160 L86 190"/>
    <path d="M124 132 L100 168 L92 196"/>
    <path d="M126 138 L104 176 L100 204"/>
    <!-- 前足、中足、后足（右） -->
    <path d="M134 126 L160 160 L170 190"/>
    <path d="M132 132 L156 168 L164 196"/>
    <path d="M130 138 L152 176 L156 204"/>
  </g>
  
</svg>
